<?xml version="1.0" encoding="utf-8"?>
<!-- Generator: Adobe Illustrator 15.0.2, SVG Export Plug-In . SVG Version: 6.00 Build 0)  -->
<!DOCTYPE svg PUBLIC "-//W3C//DTD SVG 1.1//EN" "http://www.w3.org/Graphics/SVG/1.1/DTD/svg11.dtd">
<svg version="1.1" id="Layer_1" xmlns="http://www.w3.org/2000/svg" xmlns:xlink="http://www.w3.org/1999/xlink" x="0px" y="0px"
	 width="376.729px" height="109.775px" viewBox="0 0 376.729 109.775" enable-background="new 0 0 376.729 109.775"
	 xml:space="preserve">
<g>
	<path fill="#54301A" d="M11.311,81.518c0,5.988-0.326,5.787,5.32,6.594v1.729H0v-1.729c5.654-0.807,5.331-0.605,5.331-6.594V63.104
		c0-3.061-2.074-2.801-5.331-2.801v-1.725c3.665-0.137,8.112-0.928,11.172-2.791l0.138,0.135v5.717h0.127
		c2.13-3.324,6.588-5.852,11.905-5.852c5.861,0,7.253,2.654,8.781,5.852c2.734-3.324,6.786-5.852,12.108-5.852
		c7.447,0,9.385,4.922,9.385,11.84v13.891c0,5.988-0.342,5.787,5.309,6.594v1.729H42.298v-1.729
		c5.659-0.807,5.328-0.605,5.328-6.594V69.355c0-4.984-0.337-10.113-6.579-10.113c-5.726,0-8.577,3.389-8.577,14.564v7.711
		c0,5.988-0.347,5.787,5.304,6.594v1.729H21.163v-1.729c5.646-0.807,5.314-0.605,5.314-6.594V69.355
		c0-4.984-0.339-10.113-6.587-10.113c-5.453,0-8.579,2.859-8.579,14.564V81.518L11.311,81.518z"/>
	<path fill="#54301A" d="M82.692,90.639c-0.997-1.207-1.541-3.26-1.541-5.264l-5.174,3.469c-1.533,0.996-3.403,1.795-5.458,1.795
		c-4.386,0-8.043-3.857-8.043-8.721c0-6.318,3.718-8.312,11.499-11.377l7.176-2.787c0-5.781-1.517-9.643-5.644-9.643
		c-4.052,0-5.452,3.652-7.051,6.047c-0.191,0.34-0.454,0.34-0.856,0.271l-2.265-0.531c-0.403-0.143-0.594-0.393-0.528-0.869
		l0.997-3.521c0.39-1.268,1.122-1.799,1.925-2.064c3.06-1.193,5.325-1.656,8.248-1.656c7.783,0,11.172,3.455,11.172,10.705v14.77
		c0,3.385,0.194,6.244,4.649,4.521l0.408,1.861L82.692,90.639L82.692,90.639z M81.152,70.281
		c-5.839,2.189-12.695,3.787-12.695,10.58c0,3.121,2.063,5.652,5.124,5.652c3.453,0,7.571-2.258,7.571-11.047V70.281L81.152,70.281z
		"/>
	<path fill="#54301A" d="M112.62,62.102c-0.663-0.338-1.464-0.271-2.458-0.271c-2.718,0-3.193,4.523-3.193,9.318v10.369
		c0,2.201,0,3.129,0.263,4.729c0.271,1.398,2.665,1.525,6.258,1.865v1.729H95.661v-1.729c5.654-0.807,5.322-0.605,5.322-6.594
		V63.104c0-3.061-2.055-2.801-5.267-2.801v-1.725c3.609-0.137,8.062-0.928,11.12-2.791l0.132,0.135v5.982l3.463-3.59
		c1.591-1.668,2.525-2.527,3.652-2.527c0.604,0,1.392,0.049,2.469,1.99l1.92,3.385c0.204,0.408-0.133,0.668-0.525,0.939
		l-1.933,1.268c-0.406,0.27-0.658,0.137-1.008-0.064L112.62,62.102L112.62,62.102z"/>
	<path fill="#54301A" d="M155.993,89.84h-8.314l-14.963-18.236h-0.135v9.914c0,5.988-0.348,5.787,5.317,6.594v1.729h-16.625v-1.729
		c5.648-0.807,5.314-0.605,5.314-6.594V47.601c0-1.795-0.793-2.922-2.52-2.922h-2.795v-1.727c3.988-0.135,8.231-0.936,11.165-2.004
		l0.144,0.15v28.98c4.455,0,9.239-5.438,12.167-8.314c2.991-2.908-1.207-3.449-3.599-3.449v-1.738h11.645v1.738
		c-1.273,0.789-3.58,2.123-5.652,4.043l-8.578,7.662c5.654,6.254,13.826,16.092,17.43,18.953V89.84L155.993,89.84z"/>
	<path fill="#54301A" d="M164.765,71.488c0,7.574,3.523,15.363,13.027,15.363c3.667,0,5.852-1.6,7.455-2.395l1.062,2.057
		l-8.707,4.125h-2.064c-1.672,0-7.25,0.855-12.639-5.053c-2-2.262-4.455-7.523-4.455-12.514c0-7.779,4.188-17.285,15.508-17.285
		c7.506,0,12.357,5.449,12.357,13.826v1.875H164.765L164.765,71.488z M177.198,69.154c1.465,0,3.324-0.934,3.324-3.861
		c0-4.256-3.258-7.182-6.98-7.182c-4.458,0-8.778,2.664-8.778,11.043H177.198L177.198,69.154z"/>
	<path fill="#54301A" d="M212.114,59.895l-2.721,1.342h-7.385v17.492c0,2.596,0.123,7.918,4.512,7.918
		c1.805,0,3.527-0.133,5.129-0.789l0.465,1.723l-7.711,3.059c-4.66,0-8.395-1.404-8.395-10.516V61.236H190.7v-3.055h5.309v-6.985
		c1.207-1.26,2.535-2.461,4.209-3.717h1.791v10.702h10.105V59.895L212.114,59.895z"/>
	<path fill="#A89900" d="M217.354,81.369h1.719c-0.057,4.658,3.404,6.922,7.25,6.922c3.863,0,6.115-2.934,6.115-5.721
		c0-4.336-3.453-5.857-7.443-8.711c-5.371-3.938-7.58-4.99-7.58-9.389c0-5.584,5.188-8.709,10.645-8.709
		c2.127,0,4.793,0.137,7.854,1.135v6.646h-1.734c-0.199-2.26-2.193-5.447-5.994-5.447c-2.783,0-5.115,1.656-5.115,4.248
		c0,3.189,3.396,4.918,8.248,8.383c6.254,4.377,7.049,6.852,7.049,9.91c0,6.918-6.256,9.979-12.043,9.979
		c-3.652,0-6.51-0.6-8.969-1.799V81.369L217.354,81.369z"/>
	<path fill="#A89900" d="M252.618,98.129c0,2.191,0,3.125,0.264,4.732c0.273,1.389,2.652,1.516,6.854,1.852v1.723h-18.42v-1.723
		c5.648-0.797,5.324-0.607,5.324-6.584V63.082c0-3.066,0.146-2.789-3.119-2.789v-1.746c3.666-0.127,5.898-0.922,8.953-2.785
		l0.145,0.137v5.316h0.141c2.656-3.395,6.85-5.453,11.029-5.453c7.32,0,13.906,4.059,13.906,16.75
		c0,7.734-5.59,18.104-17.098,18.104c-2.854,0-4.914-0.277-7.979-1.467V98.129L252.618,98.129z M252.618,85.225
		c2.201,2.059,4.793,3.066,7.666,3.066c9.629,0,10.824-9.711,10.824-15.705c0-10.242-4.992-13.699-10.033-13.699
		c-3.465,0-6.256,1.93-7.322,4.99c-0.934,2.525-1.135,6.318-1.135,9.711V85.225L252.618,85.225z"/>
	<path fill="#A89900" d="M303.103,90.615c-1-1.195-1.531-3.256-1.531-5.258l-5.182,3.459c-1.533,1-3.395,1.799-5.465,1.799
		c-4.389,0-8.043-3.871-8.043-8.721c0-6.322,3.725-8.307,11.52-11.365l7.17-2.799c0-5.773-1.531-9.635-5.65-9.635
		c-4.061,0-5.447,3.65-7.062,6.053c-0.193,0.322-0.461,0.322-0.859,0.254l-2.264-0.525c-0.396-0.141-0.586-0.393-0.52-0.875
		l0.982-3.514c0.408-1.266,1.127-1.795,1.939-2.061c3.055-1.199,5.32-1.666,8.252-1.666c7.783,0,11.166,3.461,11.166,10.703v14.771
		c0,3.398,0.195,6.254,4.664,4.525l0.387,1.871L303.103,90.615L303.103,90.615z M301.571,70.258
		c-5.848,2.195-12.713,3.797-12.713,10.582c0,3.121,2.066,5.652,5.135,5.652c3.457,0,7.578-2.262,7.578-11.047V70.258
		L301.571,70.258z"/>
	<path fill="#A89900" d="M344.528,86.418l-8.84,4.197c-1.67,0-9.373,0.801-14.631-5.125c-2.129-2.33-4.451-7.508-4.451-12.434
		c0-10.516,8.049-17.295,17.887-17.295c2.467,0,5.986,0.467,8.184,1.738l2.324,4.457c0.189,0.258,0.189,0.52,0,0.656l-2.324,1.465
		c-0.348,0.191-0.734,0.266-1.002,0.07l-3.395-3.936c-0.936-1.064-2.727-2.117-5.25-2.117c-3.932,0-9.84,3.119-9.84,12.771
		c0,7.045,3.188,15.963,12.756,15.963c3.674,0,5.797-1.605,7.457-2.48L344.528,86.418L344.528,86.418z"/>
	<path fill="#A89900" d="M355.171,71.451c0,7.59,3.527,15.379,13.031,15.379c3.664,0,5.854-1.605,7.459-2.4l1.066,2.062
		l-8.723,4.123h-2.057c-1.66,0-7.25,0.857-12.637-5.064c-2.002-2.256-4.447-7.502-4.447-12.494c0-7.785,4.182-17.295,15.477-17.295
		c7.525,0,12.387,5.453,12.387,13.83v1.859H355.171L355.171,71.451z M367.616,69.123c1.453,0,3.314-0.914,3.314-3.852
		c0-4.248-3.256-7.176-6.975-7.176c-4.463,0-8.785,2.65-8.785,11.027H367.616L367.616,69.123z"/>
	<path fill="#54301A" d="M12.35,100.729c-0.501-0.408-1.615-0.912-2.742-0.912c-2.585,0-4.113,1.852-4.113,4.312
		c0,2.652,1.825,4.424,4.113,4.424c1.132,0,2.042-0.361,2.652-0.783l0.565,0.877c-0.7,0.479-1.947,0.961-3.293,0.961
		c-3.734,0-5.638-2.57-5.638-5.447c0-2.641,2.068-5.383,5.813-5.383c1.506,0,2.554,0.512,3.235,1.049L12.35,100.729L12.35,100.729z"
		/>
	<path fill="#54301A" d="M19.587,104.006c0-2.938,2.212-5.229,5.246-5.229c3.013,0,5.235,2.291,5.235,5.229
		c0,3.125-2.013,5.602-5.235,5.602C21.597,109.607,19.587,107.131,19.587,104.006L19.587,104.006z M28.455,104.006
		c0-1.957-1.042-4.189-3.623-4.189c-2.593,0-3.638,2.232-3.638,4.189c0,2.053,0.928,4.547,3.638,4.547
		C27.535,108.553,28.455,106.059,28.455,104.006L28.455,104.006z"/>
	<path fill="#54301A" d="M48.875,109.422h-1.456v-8.529h-0.023c-0.424,1.223-2.79,5.852-4.206,8.529h-0.591
		c-1.302-2.678-3.469-7.154-3.869-8.529h-0.027v8.529h-1.204v-10.48h1.559c1.35,2.789,2.697,5.59,4.028,8.539
		c1.482-2.949,2.959-5.75,4.426-8.539h1.363V109.422L48.875,109.422z"/>
	<path fill="#54301A" d="M68.221,109.422h-1.451v-8.529h-0.027c-0.424,1.223-2.808,5.852-4.206,8.529H61.96
		c-1.308-2.678-3.487-7.154-3.888-8.529h-0.024v8.529h-1.204v-10.48h1.567c1.339,2.789,2.681,5.59,4.018,8.539
		c1.488-2.949,2.962-5.75,4.442-8.539h1.35V109.422L68.221,109.422z"/>
	<path fill="#54301A" d="M77.5,98.941v6.35c0,2.174,0.806,3.309,2.673,3.309c1.962,0,2.628-1.562,2.628-3.055v-6.604h1.358v6.641
		c0,2.35-1.456,4.025-3.986,4.025c-2.941,0-4.113-1.555-4.113-4.252v-6.414H77.5L77.5,98.941z"/>
	<path fill="#54301A" d="M101.15,109.422h-1.116c-2.289-2.721-6.192-7.42-6.821-8.332h-0.021v8.332h-1.212v-10.48h1.093
		c2.294,2.727,6.163,7.303,6.858,8.359h0.024v-8.359h1.196V109.422L101.15,109.422z"/>
	<polygon fill="#54301A" points="109.132,109.422 109.132,98.941 110.585,98.941 110.585,109.422 109.132,109.422 	"/>
	<path fill="#54301A" d="M126.471,100.729c-0.485-0.408-1.615-0.912-2.718-0.912c-2.594,0-4.129,1.852-4.129,4.312
		c0,2.652,1.824,4.424,4.129,4.424c1.127,0,2.023-0.361,2.623-0.783l0.578,0.877c-0.697,0.479-1.941,0.961-3.288,0.961
		c-3.739,0-5.635-2.57-5.635-5.447c0-2.641,2.055-5.383,5.805-5.383c1.517,0,2.54,0.512,3.243,1.049L126.471,100.729
		L126.471,100.729z"/>
	<path fill="#54301A" d="M138.317,98.941l3.904,10.48h-1.679l-1.071-3.082h-4l-1.127,3.082h-1.403l4.262-10.48H138.317
		L138.317,98.941z M139.134,105.291c-0.53-1.455-1.05-2.902-1.575-4.787h-0.024c-0.53,1.885-1.082,3.332-1.658,4.787H139.134
		L139.134,105.291z"/>
	<polygon fill="#54301A" points="150.226,109.422 150.226,99.996 146.872,99.996 146.872,98.941 155.044,98.941 155.044,99.996 
		151.69,99.996 151.69,109.422 150.226,109.422 	"/>
	<polygon fill="#54301A" points="161.841,109.422 161.841,98.941 163.292,98.941 163.292,109.422 161.841,109.422 	"/>
	<path fill="#54301A" d="M170.732,104.006c0-2.938,2.213-5.229,5.24-5.229c3.003,0,5.218,2.291,5.218,5.229
		c0,3.125-2,5.602-5.218,5.602C172.728,109.607,170.732,107.131,170.732,104.006L170.732,104.006z M179.599,104.006
		c0-1.957-1.037-4.189-3.626-4.189c-2.598,0-3.645,2.232-3.645,4.189c0,2.053,0.926,4.547,3.645,4.547
		C178.679,108.553,179.599,106.059,179.599,104.006L179.599,104.006z"/>
	<path fill="#54301A" d="M197.821,109.422h-1.146c-2.277-2.721-6.184-7.42-6.807-8.332h-0.027v8.332h-1.201v-10.48h1.076
		c2.311,2.727,6.172,7.303,6.871,8.359h0.023v-8.359h1.211V109.422L197.821,109.422z"/>
	<path fill="#54301A" d="M210.69,100.566c-0.504-0.377-1.166-0.75-1.807-0.75c-1.055,0-1.631,0.615-1.631,1.418
		c0,0.756,0.648,1.297,1.99,2.279c1.439,1.045,2.283,2,2.283,3.342c0,1.676-1.578,2.752-3.244,2.752
		c-1.006,0-2.211-0.371-2.951-1.098l0.637-0.875c0.609,0.451,1.285,0.918,2.279,0.918c1.029,0,1.822-0.559,1.822-1.715
		c0-1.324-1.57-2.174-2.424-2.799c-0.875-0.678-1.846-1.322-1.846-2.805c0-1.408,1.363-2.457,2.996-2.457
		c1.088,0,2.008,0.387,2.594,1.039L210.69,100.566L210.69,100.566z"/>
	<polygon fill="#54301A" points="270.284,98.873 271.774,98.873 271.774,108.525 276.229,108.525 276.229,109.598 270.284,109.598 
		270.284,98.873 	"/>
	<polygon fill="#54301A" points="282.634,98.873 284.122,98.873 284.122,108.525 288.575,108.525 288.575,109.598 282.634,109.598 
		282.634,98.873 	"/>
	<path fill="#54301A" d="M303.103,100.691c-0.51-0.41-1.652-0.934-2.807-0.934c-2.65,0-4.217,1.898-4.217,4.418
		c0,2.713,1.875,4.529,4.217,4.529c1.162,0,2.082-0.359,2.717-0.795l0.58,0.881c-0.725,0.492-2,0.986-3.387,0.986
		c-3.816,0-5.766-2.621-5.766-5.58c0-2.699,2.111-5.51,5.967-5.51c1.527,0,2.605,0.535,3.305,1.084L303.103,100.691L303.103,100.691
		z"/>
	<polygon fill="#54301A" points="215.864,103.635 215.864,99.506 214.388,99.506 214.388,99.051 217.968,99.051 217.968,99.506 
		216.493,99.506 216.493,103.635 215.864,103.635 	"/>
	<path fill="#54301A" d="M223.55,103.635h-0.645V99.9h-0.012c-0.188,0.541-1.232,2.568-1.84,3.734h-0.258
		c-0.578-1.166-1.527-3.131-1.701-3.734l0,0v3.734h-0.539v-4.584h0.68c0.592,1.219,1.189,2.447,1.766,3.732
		c0.658-1.285,1.307-2.514,1.955-3.732h0.594V103.635L223.55,103.635z"/>
	<path fill="#B32317" d="M96.17,28.227c0.533,0,1.061-0.029,1.58-0.074c0.605-2.025,0.931-4.172,0.931-6.391
		c0-10.591-7.349-19.454-17.227-21.782c-2.039,2.916-3.241,6.458-3.243,10.285C78.213,20.188,86.249,28.227,96.17,28.227
		L96.17,28.227z"/>
	<path fill="#007C85" d="M60.104,37.194c4.076,4.273,9.823,6.944,16.198,6.944c6.524,0,12.393-2.79,16.482-7.239
		c-2.861-6.121-9.07-10.359-16.272-10.359C69.194,26.54,62.906,30.918,60.104,37.194L60.104,37.194z"/>
	<path fill="#A89900" d="M53.919,21.762c0,2.193,0.326,4.311,0.913,6.314c0.475,0.037,0.955,0.062,1.44,0.062
		c9.923-0.002,17.964-8.047,17.967-17.972c0-3.775-1.169-7.278-3.167-10.167C61.236,2.353,53.919,11.201,53.919,21.762
		L53.919,21.762z"/>
</g>
<g>
	<path fill="#FFFFFF" d="M11.311,300.352c0,5.988-0.326,5.785,5.32,6.592v1.729H0v-1.729c5.654-0.807,5.331-0.604,5.331-6.592
		v-18.416c0-3.061-2.074-2.801-5.331-2.801v-1.723c3.665-0.139,8.112-0.928,11.172-2.793l0.138,0.135v5.719h0.127
		c2.13-3.326,6.588-5.854,11.905-5.854c5.861,0,7.253,2.654,8.781,5.854c2.734-3.326,6.786-5.854,12.108-5.854
		c7.447,0,9.385,4.922,9.385,11.842v13.891c0,5.988-0.342,5.785,5.309,6.592v1.729H42.298v-1.729
		c5.659-0.807,5.328-0.604,5.328-6.592v-12.162c0-4.986-0.337-10.115-6.579-10.115c-5.726,0-8.577,3.391-8.577,14.564v7.713
		c0,5.988-0.347,5.785,5.304,6.592v1.729H21.163v-1.729c5.646-0.807,5.314-0.604,5.314-6.592v-12.162
		c0-4.986-0.339-10.115-6.587-10.115c-5.453,0-8.579,2.859-8.579,14.564V300.352L11.311,300.352z"/>
	<path fill="#FFFFFF" d="M82.692,309.471c-0.997-1.207-1.541-3.26-1.541-5.264l-5.174,3.469c-1.533,0.996-3.403,1.795-5.458,1.795
		c-4.386,0-8.043-3.855-8.043-8.719c0-6.32,3.718-8.314,11.499-11.377l7.176-2.787c0-5.781-1.517-9.643-5.644-9.643
		c-4.052,0-5.452,3.652-7.051,6.047c-0.191,0.338-0.454,0.338-0.856,0.27l-2.265-0.529c-0.403-0.145-0.594-0.393-0.528-0.871
		l0.997-3.521c0.39-1.268,1.122-1.797,1.925-2.062c3.06-1.195,5.325-1.658,8.248-1.658c7.783,0,11.172,3.455,11.172,10.707v14.768
		c0,3.387,0.194,6.246,4.649,4.521l0.408,1.861L82.692,309.471L82.692,309.471z M81.152,289.115
		c-5.839,2.188-12.695,3.787-12.695,10.578c0,3.121,2.063,5.654,5.124,5.654c3.453,0,7.571-2.26,7.571-11.049V289.115
		L81.152,289.115z"/>
	<path fill="#FFFFFF" d="M112.62,280.934c-0.663-0.336-1.464-0.27-2.458-0.27c-2.718,0-3.193,4.523-3.193,9.318v10.369
		c0,2.201,0,3.129,0.263,4.729c0.271,1.396,2.665,1.523,6.258,1.863v1.729H95.661v-1.729c5.654-0.807,5.322-0.604,5.322-6.592
		v-18.416c0-3.061-2.055-2.801-5.267-2.801v-1.723c3.609-0.139,8.062-0.928,11.12-2.793l0.132,0.135v5.984l3.463-3.592
		c1.591-1.666,2.525-2.527,3.652-2.527c0.604,0,1.392,0.049,2.469,1.992l1.92,3.383c0.204,0.408-0.133,0.67-0.525,0.939
		l-1.933,1.268c-0.406,0.271-0.658,0.139-1.008-0.064L112.62,280.934L112.62,280.934z"/>
	<path fill="#FFFFFF" d="M155.993,308.672h-8.314l-14.963-18.236h-0.135v9.916c0,5.988-0.348,5.785,5.317,6.592v1.729h-16.625
		v-1.729c5.648-0.807,5.314-0.604,5.314-6.592v-33.918c0-1.795-0.793-2.922-2.52-2.922h-2.795v-1.727
		c3.988-0.135,8.231-0.936,11.165-2.004l0.144,0.15v28.979c4.455,0,9.239-5.436,12.167-8.312c2.991-2.91-1.207-3.451-3.599-3.451
		v-1.738h11.645v1.738c-1.273,0.791-3.58,2.125-5.652,4.045l-8.578,7.66c5.654,6.254,13.826,16.092,17.43,18.955V308.672
		L155.993,308.672z"/>
	<path fill="#FFFFFF" d="M164.765,290.322c0,7.572,3.523,15.361,13.027,15.361c3.667,0,5.852-1.598,7.455-2.395l1.062,2.059
		l-8.707,4.123h-2.064c-1.672,0-7.25,0.857-12.639-5.051c-2-2.264-4.455-7.523-4.455-12.516c0-7.777,4.188-17.285,15.508-17.285
		c7.506,0,12.357,5.449,12.357,13.828v1.875H164.765L164.765,290.322z M177.198,287.988c1.465,0,3.324-0.934,3.324-3.861
		c0-4.256-3.258-7.182-6.98-7.182c-4.458,0-8.778,2.662-8.778,11.043H177.198L177.198,287.988z"/>
	<path fill="#FFFFFF" d="M212.114,278.727l-2.721,1.342h-7.385v17.492c0,2.598,0.123,7.92,4.512,7.92
		c1.805,0,3.527-0.133,5.129-0.791l0.465,1.725l-7.711,3.057c-4.66,0-8.395-1.402-8.395-10.514v-18.889H190.7v-3.055h5.309v-6.982
		c1.207-1.26,2.535-2.461,4.209-3.717h1.791v10.699h10.105V278.727L212.114,278.727z"/>
	<path fill="#FFFFFF" d="M217.354,300.203h1.719c-0.057,4.656,3.404,6.922,7.25,6.922c3.863,0,6.115-2.934,6.115-5.721
		c0-4.336-3.453-5.859-7.443-8.713c-5.371-3.938-7.58-4.99-7.58-9.387c0-5.586,5.188-8.709,10.645-8.709
		c2.127,0,4.793,0.137,7.854,1.133v6.648h-1.734c-0.199-2.26-2.193-5.447-5.994-5.447c-2.783,0-5.115,1.654-5.115,4.248
		c0,3.188,3.396,4.916,8.248,8.383c6.254,4.375,7.049,6.85,7.049,9.91c0,6.916-6.256,9.977-12.043,9.977
		c-3.652,0-6.51-0.6-8.969-1.799V300.203L217.354,300.203z"/>
	<path fill="#FFFFFF" d="M252.618,316.963c0,2.189,0,3.123,0.264,4.73c0.273,1.391,2.652,1.518,6.854,1.852v1.725h-18.42v-1.725
		c5.648-0.795,5.324-0.607,5.324-6.582v-35.049c0-3.064,0.146-2.789-3.119-2.789v-1.744c3.666-0.129,5.898-0.924,8.953-2.785
		l0.145,0.137v5.316h0.141c2.656-3.395,6.85-5.453,11.029-5.453c7.32,0,13.906,4.057,13.906,16.75
		c0,7.732-5.59,18.102-17.098,18.102c-2.854,0-4.914-0.275-7.979-1.467V316.963L252.618,316.963z M252.618,304.059
		c2.201,2.059,4.793,3.066,7.666,3.066c9.629,0,10.824-9.713,10.824-15.705c0-10.242-4.992-13.701-10.033-13.701
		c-3.465,0-6.256,1.932-7.322,4.992c-0.934,2.523-1.135,6.316-1.135,9.711V304.059L252.618,304.059z"/>
	<path fill="#FFFFFF" d="M303.103,309.447c-1-1.193-1.531-3.254-1.531-5.256l-5.182,3.457c-1.533,1-3.395,1.799-5.465,1.799
		c-4.389,0-8.043-3.869-8.043-8.719c0-6.322,3.725-8.307,11.52-11.367l7.17-2.797c0-5.773-1.531-9.635-5.65-9.635
		c-4.061,0-5.447,3.648-7.062,6.051c-0.193,0.324-0.461,0.324-0.859,0.256l-2.264-0.525c-0.396-0.141-0.586-0.393-0.52-0.875
		l0.982-3.514c0.408-1.266,1.127-1.797,1.939-2.061c3.055-1.201,5.32-1.666,8.252-1.666c7.783,0,11.166,3.461,11.166,10.703v14.771
		c0,3.396,0.195,6.252,4.664,4.523l0.387,1.873L303.103,309.447L303.103,309.447z M301.571,289.092
		c-5.848,2.195-12.713,3.797-12.713,10.58c0,3.121,2.066,5.654,5.135,5.654c3.457,0,7.578-2.262,7.578-11.049V289.092
		L301.571,289.092z"/>
	<path fill="#FFFFFF" d="M344.528,305.252l-8.84,4.195c-1.67,0-9.373,0.801-14.631-5.123c-2.129-2.332-4.451-7.508-4.451-12.436
		c0-10.516,8.049-17.293,17.887-17.293c2.467,0,5.986,0.465,8.184,1.736l2.324,4.459c0.189,0.256,0.189,0.52,0,0.654l-2.324,1.467
		c-0.348,0.191-0.734,0.266-1.002,0.068l-3.395-3.936c-0.936-1.062-2.727-2.115-5.25-2.115c-3.932,0-9.84,3.119-9.84,12.771
		c0,7.043,3.188,15.961,12.756,15.961c3.674,0,5.797-1.604,7.457-2.479L344.528,305.252L344.528,305.252z"/>
	<path fill="#FFFFFF" d="M355.171,290.285c0,7.59,3.527,15.377,13.031,15.377c3.664,0,5.854-1.604,7.459-2.398l1.066,2.062
		l-8.723,4.121h-2.057c-1.66,0-7.25,0.859-12.637-5.062c-2.002-2.258-4.447-7.502-4.447-12.496c0-7.783,4.182-17.293,15.477-17.293
		c7.525,0,12.387,5.453,12.387,13.83v1.859H355.171L355.171,290.285z M367.616,287.955c1.453,0,3.314-0.914,3.314-3.85
		c0-4.248-3.256-7.176-6.975-7.176c-4.463,0-8.785,2.648-8.785,11.025H367.616L367.616,287.955z"/>
	<path fill="#FFFFFF" d="M12.35,319.562c-0.501-0.41-1.615-0.912-2.742-0.912c-2.585,0-4.113,1.85-4.113,4.311
		c0,2.652,1.825,4.424,4.113,4.424c1.132,0,2.042-0.361,2.652-0.781l0.565,0.877c-0.7,0.477-1.947,0.959-3.293,0.959
		c-3.734,0-5.638-2.568-5.638-5.445c0-2.643,2.068-5.385,5.813-5.385c1.506,0,2.554,0.512,3.235,1.051L12.35,319.562L12.35,319.562z
		"/>
	<path fill="#FFFFFF" d="M19.587,322.84c0-2.939,2.212-5.23,5.246-5.23c3.013,0,5.235,2.291,5.235,5.23c0,3.123-2.013,5.6-5.235,5.6
		C21.597,328.439,19.587,325.963,19.587,322.84L19.587,322.84z M28.455,322.84c0-1.957-1.042-4.189-3.623-4.189
		c-2.593,0-3.638,2.232-3.638,4.189c0,2.053,0.928,4.545,3.638,4.545C27.535,327.385,28.455,324.893,28.455,322.84L28.455,322.84z"
		/>
	<path fill="#FFFFFF" d="M48.875,328.254h-1.456v-8.527h-0.023c-0.424,1.223-2.79,5.85-4.206,8.527h-0.591
		c-1.302-2.678-3.469-7.154-3.869-8.527h-0.027v8.527h-1.204v-10.48h1.559c1.35,2.791,2.697,5.592,4.028,8.541
		c1.482-2.949,2.959-5.75,4.426-8.541h1.363V328.254L48.875,328.254z"/>
	<path fill="#FFFFFF" d="M68.221,328.254h-1.451v-8.527h-0.027c-0.424,1.223-2.808,5.85-4.206,8.527H61.96
		c-1.308-2.678-3.487-7.154-3.888-8.527h-0.024v8.527h-1.204v-10.48h1.567c1.339,2.791,2.681,5.592,4.018,8.541
		c1.488-2.949,2.962-5.75,4.442-8.541h1.35V328.254L68.221,328.254z"/>
	<path fill="#FFFFFF" d="M77.5,317.773v6.35c0,2.174,0.806,3.311,2.673,3.311c1.962,0,2.628-1.562,2.628-3.057v-6.604h1.358v6.641
		c0,2.35-1.456,4.025-3.986,4.025c-2.941,0-4.113-1.553-4.113-4.25v-6.416H77.5L77.5,317.773z"/>
	<path fill="#FFFFFF" d="M101.15,328.254h-1.116c-2.289-2.721-6.192-7.42-6.821-8.332h-0.021v8.332h-1.212v-10.48h1.093
		c2.294,2.727,6.163,7.305,6.858,8.359h0.024v-8.359h1.196V328.254L101.15,328.254z"/>
	<polygon fill="#FFFFFF" points="109.132,328.254 109.132,317.773 110.585,317.773 110.585,328.254 109.132,328.254 	"/>
	<path fill="#FFFFFF" d="M126.471,319.562c-0.485-0.41-1.615-0.912-2.718-0.912c-2.594,0-4.129,1.85-4.129,4.311
		c0,2.652,1.824,4.424,4.129,4.424c1.127,0,2.023-0.361,2.623-0.781l0.578,0.877c-0.697,0.477-1.941,0.959-3.288,0.959
		c-3.739,0-5.635-2.568-5.635-5.445c0-2.643,2.055-5.385,5.805-5.385c1.517,0,2.54,0.512,3.243,1.051L126.471,319.562
		L126.471,319.562z"/>
	<path fill="#FFFFFF" d="M138.317,317.773l3.904,10.48h-1.679l-1.071-3.08h-4l-1.127,3.08h-1.403l4.262-10.48H138.317
		L138.317,317.773z M139.134,324.123c-0.53-1.453-1.05-2.9-1.575-4.787h-0.024c-0.53,1.887-1.082,3.334-1.658,4.787H139.134
		L139.134,324.123z"/>
	<polygon fill="#FFFFFF" points="150.226,328.254 150.226,318.83 146.872,318.83 146.872,317.773 155.044,317.773 155.044,318.83 
		151.69,318.83 151.69,328.254 150.226,328.254 	"/>
	<polygon fill="#FFFFFF" points="161.841,328.254 161.841,317.773 163.292,317.773 163.292,328.254 161.841,328.254 	"/>
	<path fill="#FFFFFF" d="M170.732,322.84c0-2.939,2.213-5.23,5.24-5.23c3.003,0,5.218,2.291,5.218,5.23c0,3.123-2,5.6-5.218,5.6
		C172.728,328.439,170.732,325.963,170.732,322.84L170.732,322.84z M179.599,322.84c0-1.957-1.037-4.189-3.626-4.189
		c-2.598,0-3.645,2.232-3.645,4.189c0,2.053,0.926,4.545,3.645,4.545C178.679,327.385,179.599,324.893,179.599,322.84
		L179.599,322.84z"/>
	<path fill="#FFFFFF" d="M197.821,328.254h-1.146c-2.277-2.721-6.184-7.42-6.807-8.332h-0.027v8.332h-1.201v-10.48h1.076
		c2.311,2.727,6.172,7.305,6.871,8.359h0.023v-8.359h1.211V328.254L197.821,328.254z"/>
	<path fill="#FFFFFF" d="M210.69,319.4c-0.504-0.377-1.166-0.75-1.807-0.75c-1.055,0-1.631,0.615-1.631,1.418
		c0,0.756,0.648,1.297,1.99,2.277c1.439,1.045,2.283,2,2.283,3.342c0,1.676-1.578,2.752-3.244,2.752
		c-1.006,0-2.211-0.371-2.951-1.098l0.637-0.875c0.609,0.451,1.285,0.918,2.279,0.918c1.029,0,1.822-0.557,1.822-1.713
		c0-1.326-1.57-2.174-2.424-2.801c-0.875-0.676-1.846-1.32-1.846-2.803c0-1.408,1.363-2.459,2.996-2.459
		c1.088,0,2.008,0.387,2.594,1.041L210.69,319.4L210.69,319.4z"/>
	<polygon fill="#FFFFFF" points="270.284,317.705 271.774,317.705 271.774,327.357 276.229,327.357 276.229,328.43 270.284,328.43 
		270.284,317.705 	"/>
	<polygon fill="#FFFFFF" points="282.634,317.705 284.122,317.705 284.122,327.357 288.575,327.357 288.575,328.43 282.634,328.43 
		282.634,317.705 	"/>
	<path fill="#FFFFFF" d="M303.103,319.525c-0.51-0.412-1.652-0.934-2.807-0.934c-2.65,0-4.217,1.898-4.217,4.418
		c0,2.713,1.875,4.529,4.217,4.529c1.162,0,2.082-0.361,2.717-0.797l0.58,0.881c-0.725,0.494-2,0.986-3.387,0.986
		c-3.816,0-5.766-2.619-5.766-5.578c0-2.701,2.111-5.512,5.967-5.512c1.527,0,2.605,0.535,3.305,1.084L303.103,319.525
		L303.103,319.525z"/>
	<polygon fill="#FFFFFF" points="215.864,322.469 215.864,318.34 214.388,318.34 214.388,317.883 217.968,317.883 217.968,318.34 
		216.493,318.34 216.493,322.469 215.864,322.469 	"/>
	<path fill="#FFFFFF" d="M223.55,322.469h-0.645v-3.734h-0.012c-0.188,0.541-1.232,2.566-1.84,3.734h-0.258
		c-0.578-1.168-1.527-3.133-1.701-3.734l0,0v3.734h-0.539v-4.586h0.68c0.592,1.221,1.189,2.447,1.766,3.734
		c0.658-1.287,1.307-2.514,1.955-3.734h0.594V322.469L223.55,322.469z"/>
	<path fill="#FFFFFF" d="M96.17,247.062c0.533,0,1.061-0.029,1.58-0.074c0.605-2.027,0.931-4.172,0.931-6.393
		c0-10.59-7.349-19.453-17.227-21.781c-2.039,2.916-3.241,6.459-3.243,10.285C78.213,239.023,86.249,247.061,96.17,247.062
		L96.17,247.062z"/>
	<path fill="#FFFFFF" d="M60.104,256.027c4.076,4.275,9.823,6.943,16.198,6.943c6.524,0,12.393-2.789,16.482-7.238
		c-2.861-6.119-9.07-10.357-16.272-10.357C69.194,245.375,62.906,249.752,60.104,256.027L60.104,256.027z"/>
	<path fill="#FFFFFF" d="M53.919,240.596c0,2.193,0.326,4.312,0.913,6.314c0.475,0.037,0.955,0.064,1.44,0.064
		c9.923-0.002,17.964-8.049,17.967-17.973c0-3.775-1.169-7.277-3.167-10.168C61.236,221.188,53.919,230.035,53.919,240.596
		L53.919,240.596z"/>
</g>
</svg>
